<?xml version="1.0" encoding="UTF-8"?>
<svg id="Layer_12" data-name="Layer 12" xmlns="http://www.w3.org/2000/svg" viewBox="0 0 1123.51 1123.51">
  <g id="Valkey">
    <g>
      <path d="M1080.68,1011.16H42.83L561.75,112.35l518.93,898.8ZM71.19,994.78h981.12L561.75,145.1,71.19,994.78Z"/>
      <g>
        <polygon points="517.94 702.96 562.06 779.37 606.17 702.96 517.94 702.96"/>
        <path d="M561.75,639.99c-49.97,0-90.63,40.66-90.63,90.63s40.66,90.63,90.63,90.63,90.63-40.66,90.63-90.63-40.66-90.63-90.63-90.63ZM561.75,793.62c-34.74,0-63-28.26-63-63s28.26-63,63-63,63,28.26,63,63-28.26,63-63,63Z"/>
        <path d="M385.89,898.8l10.66-18.38h112.31l10.66,18.38h301.34l-259.1-448.78-259.1,448.78h83.24ZM497.79,619.82h127.93l63.97,110.79-63.97,110.79h-127.93l-63.97-110.79,63.97-110.79Z"/>
      </g>
    </g>
  </g>
</svg>