<svg width="512" height="512" viewBox="0 0 512 512" fill="none" xmlns="http://www.w3.org/2000/svg">
<rect width="512" height="512" rx="48" fill="white"/>
<rect width="512" height="512" rx="48" fill="white"/>
<rect x="2" y="2" width="508" height="508" rx="46" stroke="#282827" stroke-opacity="0.2" stroke-width="4"/>
<path d="M467.406 438.536H45.085L256.243 72.7979L467.402 438.536H467.406ZM56.6279 431.872H455.863L256.243 86.1267L56.6279 431.872Z" fill="#239948"/>
<path d="M236.647 315.436L256.243 349.379L275.842 315.436H236.647Z" fill="#239948"/>
<path d="M231.778 308.216H246.795L217.325 257.173L156.74 361.9H171.757L217.325 283.182L231.778 308.216Z" fill="#239948"/>
<path d="M288.482 249.563L256.657 194.381L224.752 249.429L256.58 304.611L288.482 249.563Z" fill="#239948"/>
<path d="M237.09 392.028L230.463 403.506H252.643V358.478L218.542 299.416L182.452 361.928H243.154V392.028H237.09Z" fill="#239948"/>
<path d="M330.44 361.928L294.35 299.416L260.594 357.886V403.506H282.434L275.806 392.028H269.738V361.928H330.44Z" fill="#239948"/>
<path d="M295.163 257.173L265.696 308.216H280.709L295.163 283.182L340.734 361.9H355.747L295.163 257.173Z" fill="#239948"/>
</svg>
