<svg width="512" height="512" viewBox="0 0 512 512" fill="none" xmlns="http://www.w3.org/2000/svg">
<rect width="512" height="512" rx="48" fill="white"/>
<rect width="512" height="512" rx="48" fill="white"/>
<rect x="2" y="2" width="508" height="508" rx="46" stroke="#282827" stroke-opacity="0.2" stroke-width="4"/>
<path d="M467.406 438.536H45.085L256.243 72.7979L467.402 438.536H467.406ZM56.6279 431.872H455.863L256.243 86.1267L56.6279 431.872Z" fill="#005ED6"/>
<path d="M304.85 393.164H282.003L258.41 352.496L275.542 323.159L280.161 349.452L304.85 393.164Z" fill="#005ED6"/>
<path d="M319.944 256.467H314.015L311.555 260.676L293.185 292.492L279.617 315.992L278.059 318.695H321.665L334.925 331.955V355.913H313.658C311.49 355.913 309.733 357.671 309.733 359.838V375.712H335.12C345.823 375.712 354.512 367.136 354.711 356.481H354.719V291.25C354.719 272.04 339.146 256.467 319.936 256.467H319.944ZM328.707 290.45C328.707 292.61 326.942 294.375 324.782 294.375H321.134C318.974 294.375 317.209 292.61 317.209 290.45V286.802C317.209 284.642 318.974 282.877 321.134 282.877H324.782C326.942 282.877 328.707 284.642 328.707 286.802V290.45Z" fill="#005ED6"/>
<path d="M152.162 364.05L161.558 347.808H181.807L207.896 392.835H230.751L204.26 347.808L250.781 347.848L261.094 329.986L237.992 290.251L220.348 259.34L180.305 259.693L152.418 307.561L152.393 314.254L141.504 333.594V352.65L152.734 333.533" fill="#005ED6"/>
<path d="M266.394 320.764L308.195 248.369H224.598L266.394 320.764Z" fill="#005ED6"/>
<path d="M254.535 356.952H242.176V389.239C242.176 391.407 243.933 393.164 246.101 393.164H264.986L264.892 374.965L254.535 356.952Z" fill="#005ED6"/>
<path d="M175.357 380.497L184.777 364.241L180.576 356.956H162.746L153.46 373.037V388.996C153.46 391.163 155.217 392.92 157.385 392.92H182.439L175.357 380.501V380.497Z" fill="#005ED6"/>
</svg>
