<?xml version="1.0" encoding="UTF-8"?>
<svg id="Layer_12" data-name="Layer 12" xmlns="http://www.w3.org/2000/svg" viewBox="0 0 1123.51 1123.51">
  <defs>
    <style>
      .cls-1 {
        fill: #fff;
      }
    </style>
  </defs>
  <g id="Background">
    <g>
      <path class="cls-1" d="M1080.68,1011.16H42.83L561.75,112.35l518.93,898.8ZM71.19,994.78h981.12L561.75,145.1,71.19,994.78Z"/>
      <g>
        <polygon class="cls-1" points="529.44 662.42 529.44 662.42 773.07 662.42 651.25 451.44 529.44 662.42"/>
        <polygon class="cls-1" points="435.89 555.32 419.17 526.36 340.61 662.42 374.06 662.42 435.89 555.32"/>
        <polygon class="cls-1" points="587.99 516.98 535.5 426.08 399.05 662.42 504.03 662.42 587.99 516.98"/>
        <g>
          <polygon class="cls-1" points="529.44 683.48 529.44 683.48 773.07 683.48 651.25 894.45 529.44 683.48"/>
          <polygon class="cls-1" points="435.89 790.57 419.17 819.53 340.61 683.48 374.06 683.48 435.89 790.57"/>
          <polygon class="cls-1" points="587.99 828.91 535.5 919.81 399.05 683.48 504.03 683.48 587.99 828.91"/>
        </g>
      </g>
    </g>
  </g>
</svg>