<svg width="512" height="512" viewBox="0 0 512 512" fill="none" xmlns="http://www.w3.org/2000/svg">
<rect width="512" height="512" rx="48" fill="white"/>
<rect width="512" height="512" rx="48" fill="white"/>
<rect x="2" y="2" width="508" height="508" rx="46" stroke="#282827" stroke-opacity="0.2" stroke-width="4"/>
<path d="M466.499 438.536H45.9844L256.242 74.3604L466.499 438.536ZM57.4786 431.9H455.005L256.242 87.6323L57.4786 431.9Z" fill="#2AA6DF"/>
<path d="M144.104 359.157L156.695 392.694H340.376L368.21 359.157H144.104Z" fill="#2AA6DF"/>
<path d="M165.664 347.358L225.189 242.757L233.12 256.451L181.229 347.358" fill="#2AA6DF"/>
<path d="M274.652 314.965L293.355 347.358H353.505L274.652 210.782L195.8 347.358H255.95L274.652 314.965Z" fill="#2AA6DF"/>
<path d="M219.674 210.782L239.74 245.541L259.81 210.782H219.674Z" fill="#2AA6DF"/>
</svg>
