<svg width="160" height="160" viewBox="0 0 28 25" fill="none" xmlns="http://www.w3.org/2000/svg">
<path d="M207.8 174.8L169.064 109.632L172.87 107.522L170.967 101.981C175.588 98.1556 179.258 93.4065 181.84 88.2617L187.82 88.6574L191.49 75.2018L186.189 72.5634C186.597 66.891 185.918 60.9546 183.879 55.4141L188.364 51.5885L181.161 39.452L175.452 41.2988C171.51 36.8136 166.617 33.2518 161.317 30.7454L161.725 24.941L147.861 21.3792L145.143 26.524C139.298 26.1283 133.182 26.7879 127.474 28.7666L123.532 24.4133L119.727 26.524L104.368 0.799988L72.1559 55.0183L20.5079 141.689L0.800049 174.8H143.376H207.8ZM116.872 48.5543L148.405 101.585C146.638 101.981 144.871 102.113 143.104 102.245C142.696 102.245 142.424 102.245 142.017 102.245C135.493 102.245 129.377 100.266 124.212 96.9683C122.445 95.9129 120.95 94.5938 119.455 93.2746C114.698 88.7894 111.3 82.985 109.941 76.3891C109.533 74.6741 109.397 72.9592 109.261 71.1123C109.261 70.5847 109.261 70.057 109.261 69.5293C109.261 63.1973 111.028 57.2609 114.154 52.2481C114.969 50.9289 115.921 49.7416 116.872 48.5543ZM134.405 37.7371C136.444 37.2094 138.619 36.9455 140.929 36.8136C141.337 36.8136 141.609 36.8136 142.017 36.8136C148.541 36.8136 154.657 38.7924 159.822 42.0904C161.589 43.1457 163.084 44.4649 164.579 45.7841C169.336 50.2693 172.734 56.0737 174.093 62.6696C174.501 64.3845 174.637 66.0994 174.772 67.9463C174.772 68.474 174.772 69.0017 174.772 69.5293C174.772 75.8614 173.006 81.7977 169.879 86.8106C168.928 88.3936 167.705 89.9766 166.482 91.4277C164.851 93.2746 163.084 94.8576 161.045 96.1768L127.746 40.1116C129.784 39.0562 132.095 38.2647 134.405 37.7371ZM104.368 27.4474L111.028 38.7924C107.358 42.3542 104.368 46.3117 102.193 50.7969L96.213 50.4012L92.5433 63.8568L97.844 66.4952C97.4363 72.1677 98.1159 78.104 100.155 83.6446L95.6694 87.4702L102.873 99.6067L108.581 97.7598C112.523 102.245 117.416 105.807 122.717 108.313L122.309 114.118L136.172 117.679L138.891 112.535C143.92 112.93 149.084 112.403 153.977 111.084L184.015 161.608H135.493L128.289 149.472L133.454 145.118L126.386 133.246L119.862 135.356L109.669 118.207L114.834 113.854L107.766 101.981L101.242 104.092L91.0482 86.9425L96.213 82.4573L89.1454 70.5847L82.6214 72.6954L80.175 68.474L104.368 27.4474ZM24.5853 161.476L72.9714 80.0828L121.357 161.476H24.5853Z" fill="white"/>
</svg>
