<svg width="512" height="512" viewBox="0 0 512 512" fill="none" xmlns="http://www.w3.org/2000/svg">
<rect width="512" height="512" rx="48" fill="white"/>
<rect width="512" height="512" rx="48" fill="white"/>
<rect x="2" y="2" width="508" height="508" rx="46" stroke="#282827" stroke-opacity="0.2" stroke-width="4"/>
<path d="M467.406 438.536H45.085L256.243 72.7979L467.402 438.536H467.406ZM56.6279 431.872H455.863L256.243 86.1267L56.6279 431.872Z" fill="#EA6525"/>
<path d="M172.455 352.341H209.414L191.125 320.29L172.455 352.341Z" fill="#EA6525"/>
<path d="M145.023 356.55L138.313 367.123V393.192L163.08 367.857L176.031 379.165L192.477 378.856L173.36 356.55H145.023Z" fill="#EA6525"/>
<path d="M299.493 275.38H257.433L210.644 256.243L222.475 276.959L176.973 302.107L150.709 347.442H164.882L191.255 302.172L217.077 347.43H243.921L235.804 361.36L253.443 392.275L294.213 322.043L282.682 301.887L316.073 301.965L327.62 322.185H304.782L273.071 376.458L282.589 392.693L308.873 347.873L314.401 347.678C329.268 347.678 365.67 344.236 365.67 329.365C365.67 302.918 325.936 275.38 299.485 275.38H299.493ZM338.485 334.528C338.485 336.61 336.785 338.31 334.702 338.31H331.184C329.101 338.31 327.401 336.606 327.401 334.528V331.009C327.401 328.927 329.101 327.226 331.184 327.226H334.702C336.785 327.226 338.485 328.927 338.485 331.009V334.528Z" fill="#EA6525"/>
</svg>
