<svg width="512" height="512" viewBox="0 0 512 512" fill="none" xmlns="http://www.w3.org/2000/svg">
<rect width="512" height="512" rx="48" fill="white"/>
<rect width="512" height="512" rx="48" fill="white"/>
<rect x="2" y="2" width="508" height="508" rx="46" stroke="#282827" stroke-opacity="0.2" stroke-width="4"/>
<path d="M466.862 438.646H45.6289L256.243 73.8447L466.862 438.641V438.646ZM57.1394 431.997H455.347L256.243 87.137L57.1394 431.997Z" fill="#653DF4"/>
<path d="M243.13 297.102H342.012L292.569 211.472L243.13 297.102Z" fill="#653DF4"/>
<path d="M205.161 253.634L198.374 241.88L166.489 297.103H180.066L205.161 253.634Z" fill="#653DF4"/>
<path d="M266.893 238.072L245.589 201.179L190.208 297.102H232.816L266.893 238.072Z" fill="#653DF4"/>
<path d="M243.13 305.65H342.012L292.569 391.277L243.13 305.65Z" fill="#653DF4"/>
<path d="M205.161 349.115L198.374 360.869L166.489 305.65H180.066L205.161 349.115Z" fill="#653DF4"/>
<path d="M266.893 364.676L245.589 401.57L190.208 305.65H232.816L266.893 364.676Z" fill="#653DF4"/>
</svg>
