<?xml version="1.0" encoding="utf-8"?>
<svg width="160" height="160" viewBox="0 0 160 160" fill="none" version="1.1" id="Layer_1" xmlns="http://www.w3.org/2000/svg" xmlns:xlink="http://www.w3.org/1999/xlink" x="0px" y="0px"
	 viewBox="0 0 283.5 283.5" style="enable-background:new 0 0 283.5 283.5;" xml:space="preserve">
<style type="text/css">
	.st0{fill:url(#SVGID_1_);}
	.st1{fill:url(#SVGID_2_);}
	.st2{fill:#FFFFFF;}
	.st3{fill:url(#SVGID_3_);}
	.st4{fill:url(#SVGID_4_);}
	.st5{fill:url(#SVGID_5_);}
	.st6{fill:url(#SVGID_6_);}
	.st7{fill:url(#SVGID_7_);}
	.st8{fill:url(#SVGID_8_);}
</style>
<path class="st2" d="M216.1,207.7l-28.5-49.4l2.8-1.6l-1.4-4.2c3.4-2.9,6.1-6.5,8-10.4l4.4,0.3l2.7-10.2l-3.9-2
	c0.3-4.3-0.2-8.8-1.7-13l3.3-2.9l-5.3-9.2l-4.2,1.4c-2.9-3.4-6.5-6.1-10.4-8l0.3-4.4L172,91.4l-2,3.9c-4.3-0.3-8.8,0.2-13,1.7
	l-2.9-3.3l-2.8,1.6L140,75.8l-23.7,41.1v0l-38,65.7l-14.5,25.1h0h0h104.9h0H216.1z M149.2,112l23.2,40.2c-1.3,0.3-2.6,0.4-3.9,0.5
	c-0.3,0-0.5,0-0.8,0c-4.8,0-9.3-1.5-13.1-4c-1.3-0.8-2.4-1.8-3.5-2.8c-3.5-3.4-6-7.8-7-12.8c-0.3-1.3-0.4-2.6-0.5-4
	c0-0.4,0-0.8,0-1.2c0-4.8,1.3-9.3,3.6-13.1C147.8,113.8,148.5,112.9,149.2,112z M162.1,103.8c1.5-0.4,3.1-0.6,4.8-0.7
	c0.3,0,0.5,0,0.8,0c4.8,0,9.3,1.5,13.1,4c1.3,0.8,2.4,1.8,3.5,2.8c3.5,3.4,6,7.8,7,12.8c0.3,1.3,0.4,2.6,0.5,4c0,0.4,0,0.8,0,1.2
	c0,4.8-1.3,9.3-3.6,13.1c-0.7,1.2-1.6,2.4-2.5,3.5c-1.2,1.4-2.5,2.6-4,3.6l-24.5-42.5C158.7,104.8,160.4,104.2,162.1,103.8z M140,96
	l4.9,8.6c-2.7,2.7-4.9,5.7-6.5,9.1l-4.4-0.3l-2.7,10.2l3.9,2c-0.3,4.3,0.2,8.8,1.7,13l-3.3,2.9l5.3,9.2l4.2-1.4
	c2.9,3.4,6.5,6.1,10.4,8l-0.3,4.4l10.2,2.7l2-3.9c3.7,0.3,7.5-0.1,11.1-1.1l22.1,38.3h-35.7l-5.3-9.2l3.8-3.3l-5.2-9l-4.8,1.6
	l-7.5-13l3.8-3.3l-5.2-9l-4.8,1.6l-7.5-13l3.8-3.4l-5.2-9l-4.8,1.6l-1.8-3.2L140,96z M81.3,197.6l35.6-61.7h0l35.6,61.7H81.3z"/>
</svg>
