<svg width="160" height="160" viewBox="0 0 160 160" fill="none" xmlns="http://www.w3.org/2000/svg">
<g clip-path="url(#clip0_1897_10083)">
<path d="M143.5 126.387L119.734 84.6225L122.07 83.2703L120.902 79.7192C123.737 77.2676 125.989 74.2241 127.572 70.9268L131.242 71.1804L133.494 62.5571L130.241 60.8663C130.491 57.231 130.075 53.4264 128.824 49.8757L131.576 47.424L127.157 39.6461L123.653 40.8296C121.235 37.9552 118.233 35.6725 114.981 34.0662L115.232 30.3464L106.726 28.0637L105.058 31.3608C101.472 31.1073 97.7199 31.53 94.2179 32.7981L91.7993 30.0081L89.4649 31.3608L80.0417 14.875L60.2787 49.6221L28.5913 105.167L16.5 126.387H103.974H143.5ZM87.7133 45.4794L107.06 79.4654C105.975 79.7192 104.891 79.8038 103.807 79.8884C103.557 79.8884 103.39 79.8884 103.14 79.8884C99.1377 79.8884 95.3854 78.6201 92.2165 76.5067C91.1324 75.8303 90.2152 74.985 89.298 74.1396C86.3795 71.2651 84.2947 67.5452 83.4608 63.3181C83.2105 62.2189 83.1272 61.1199 83.0437 59.9363C83.0437 59.5981 83.0437 59.26 83.0437 58.9218C83.0437 54.8637 84.1278 51.0593 86.0457 47.8467C86.5457 47.0012 87.1298 46.2403 87.7133 45.4794ZM98.4702 38.547C99.7212 38.2088 101.056 38.0397 102.473 37.9552C102.723 37.9552 102.89 37.9552 103.14 37.9552C107.143 37.9552 110.895 39.2233 114.064 41.3369C115.148 42.0132 116.066 42.8587 116.983 43.7041C119.901 46.5786 121.986 50.2985 122.82 54.5256C123.07 55.6246 123.153 56.7237 123.237 57.9073C123.237 58.2455 123.237 58.5836 123.237 58.9218C123.237 62.9798 122.153 66.7843 120.234 69.9969C119.651 71.0114 118.901 72.0259 118.151 72.9559C117.149 74.1396 116.066 75.154 114.815 75.9994L94.3847 40.0687C95.6351 39.3923 97.0529 38.8851 98.4702 38.547ZM80.0417 31.9526L84.1278 39.2233C81.8761 41.506 80.0417 44.0422 78.7073 46.9167L75.0384 46.6631L72.7869 55.2864L76.0391 56.9773C75.789 60.6127 76.2059 64.4171 77.4569 67.9679L74.7049 70.4196L79.1245 78.1976L82.6265 77.0139C85.045 79.8884 88.047 82.1712 91.2993 83.7773L91.049 87.4975L99.5543 89.7796L101.222 86.483C104.308 86.7362 107.476 86.3984 110.478 85.5531L128.907 117.933H99.1377L94.7179 110.155L97.8868 107.365L93.5503 99.7561L89.5477 101.108L83.294 90.118L86.4629 87.3283L82.1265 79.7192L78.1238 81.0721L71.8696 70.0814L75.0384 67.2069L70.7022 59.5981L66.6996 60.9508L65.1986 58.2455L80.0417 31.9526ZM31.0929 117.848L60.779 65.6852L90.4649 117.848H31.0929Z" fill="white"/>
</g>
<defs>
<clipPath id="clip0_1897_10083">
<rect width="127" height="112.117" fill="white" transform="translate(16.5 14.875)"/>
</clipPath>
</defs>
</svg>
