<svg width="512" height="512" viewBox="0 0 512 512" fill="none" xmlns="http://www.w3.org/2000/svg">
<rect width="512" height="512" rx="48" fill="white"/>
<rect width="512" height="512" rx="48" fill="white"/>
<rect x="2" y="2" width="508" height="508" rx="46" stroke="#282827" stroke-opacity="0.2" stroke-width="4"/>
<path d="M466.862 438.646H45.6289L256.243 73.8447L466.862 438.641V438.646ZM57.1394 431.997H455.347L256.243 87.137L57.1394 431.997Z" fill="#653DF4"/>
<path d="M375.675 387.964L256.243 181.104L136.815 387.964H169.358L176.623 375.382H158.607L256.243 206.268L353.883 375.382H201.008L256.353 279.547L297.865 351.448H312.395L256.353 254.383L256.206 254.639L256.198 254.627L179.213 387.964H216.196H375.675Z" fill="#653DF4"/>
<path d="M287.004 362.337L256.243 309.059L225.482 362.337H287.004Z" fill="#653DF4"/>
</svg>
