<?xml version="1.0" encoding="UTF-8"?>
<svg id="Layer_12" data-name="Layer 12" xmlns="http://www.w3.org/2000/svg" viewBox="0 0 1123.51 1123.51">
  <defs>
    <style>
      .cls-1 {
        fill: #fff;
      }
    </style>
  </defs>
  <g id="Background">
    <g>
      <path class="cls-1" d="M1082.02,1010.89H41.49L561.75,109.77l520.26,901.12ZM69.93,994.47h983.65L561.75,142.61,69.93,994.47Z"/>
      <g>
        <polygon class="cls-1" points="513.47 707.59 561.75 791.22 610.04 707.59 513.47 707.59"/>
        <polygon class="cls-1" points="501.47 689.8 538.47 689.8 465.86 564.04 316.59 822.07 353.59 822.07 465.86 628.12 501.47 689.8"/>
        <polygon class="cls-1" points="641.18 545.29 562.77 409.33 484.16 544.96 562.58 680.92 641.18 545.29"/>
        <polygon class="cls-1" points="514.56 896.3 498.23 924.58 552.88 924.58 552.88 813.64 468.86 668.12 379.94 822.14 529.5 822.14 529.5 896.3 514.56 896.3"/>
        <polygon class="cls-1" points="744.56 822.14 655.64 668.12 572.47 812.18 572.47 924.58 626.28 924.58 609.95 896.3 595 896.3 595 822.14 744.56 822.14"/>
        <polygon class="cls-1" points="657.64 564.04 585.04 689.8 622.03 689.8 657.64 628.12 769.92 822.07 806.91 822.07 657.64 564.04"/>
      </g>
    </g>
  </g>
</svg>