<svg width="28" height="25" viewBox="0 0 28 25" fill="none" xmlns="http://www.w3.org/2000/svg">
<path d="M19.3996 13.148C21.9082 11.5083 22.7289 8.16368 21.2109 5.53493C20.4502 4.21636 19.2207 3.27206 17.7497 2.87776C16.3868 2.51187 14.9634 2.6615 13.7106 3.29444L12 0.333374L8.44934 6.48295L0.242432 20.6959H23.7576L19.3996 13.148ZM17.3474 4.38416C18.4167 4.66894 19.3064 5.35548 19.8606 6.31143C20.9499 8.19582 20.384 10.5859 18.6176 11.7931L14.4917 4.64797C15.3806 4.22055 16.3831 4.12734 17.3474 4.38416ZM12 3.45432L21.0533 19.135H15.7562L9.35029 8.04341L12 3.45432ZM2.94667 19.135L8.44888 9.6071L13.9511 19.135H2.94667Z" fill="white"/>
</svg>
