<svg width="161" height="160" viewBox="0 0 161 160" fill="none" xmlns="http://www.w3.org/2000/svg">
<path d="M120.778 85.1597C134.433 76.1824 138.901 57.8706 130.637 43.4783C126.497 36.2592 119.804 31.0892 111.797 28.9304C104.379 26.9272 96.6307 27.7463 89.811 31.2117L80.5 15L61.1726 48.6687L16.5 126.484H144.5L120.778 85.1597ZM109.608 37.1779C115.428 38.737 120.271 42.4958 123.288 47.7296C129.217 58.0466 126.137 71.1324 116.521 77.7416L94.0631 38.6222C98.9013 36.2822 104.359 35.7718 109.608 37.1779ZM80.5 32.087L129.78 117.938H100.946L66.0768 57.2122L80.4975 32.0895L80.5 32.087ZM31.2201 117.938L61.1701 65.7735L91.1202 117.938H31.2201Z" fill="white"/>
</svg>
